<?xml version="1.0" encoding="utf-8"?>
<!-- Generator: Adobe Illustrator 24.0.1, SVG Export Plug-In . SVG Version: 6.00 Build 0)  -->
<svg version="1.1" id="Layer_1" xmlns="http://www.w3.org/2000/svg" xmlns:xlink="http://www.w3.org/1999/xlink" x="0px" y="0px"
	 viewBox="0 0 250 100" style="enable-background:new 0 0 250 100;" xml:space="preserve">
<style type="text/css">
	.st0{fill:#CA4B9B;}
</style>
<g>
	<g>
		<path d="M20.19,56.28v-8.78c1.39,0,2.38-0.19,2.98-0.56c0.6-0.37,0.9-1.07,0.9-2.09V32.89c0-1.04-0.3-1.75-0.9-2.12
			c-0.6-0.37-1.59-0.56-2.98-0.56v-8.78h32.74v13.39h-8.28c0-0.98-0.05-1.76-0.14-2.35c-0.09-0.59-0.27-1.06-0.53-1.4
			c-0.26-0.34-0.61-0.57-1.04-0.69c-0.43-0.12-0.97-0.18-1.62-0.18h-3.29v6.84h7.55v4.16h-7.55v3.64c0,0.84,0.21,1.49,0.63,1.95
			c0.42,0.47,1.18,0.7,2.28,0.7h2.41v8.78H20.19z"/>
		<path d="M73.32,30.22v14.74c0,1.06,0.26,1.75,0.78,2.07c0.52,0.32,1.18,0.49,1.99,0.49h0.64v8.78H56.8v-8.78h0.92
			c0.84,0,1.45-0.26,1.86-0.79c0.4-0.53,0.6-1.1,0.6-1.72v-3.34c0-0.91-0.29-1.59-0.86-2.02c-0.58-0.43-1.24-0.65-2-0.65H56.8v-8.78
			H73.32z M59.81,24.4c0-1.36,0.52-2.51,1.55-3.48c1.03-0.96,2.5-1.44,4.41-1.44c1.94,0,3.43,0.48,4.48,1.44
			c1.05,0.96,1.57,2.12,1.57,3.48c0,1.39-0.52,2.56-1.57,3.51c-1.05,0.95-2.54,1.43-4.48,1.43c-1.91,0-3.38-0.48-4.41-1.43
			C60.33,26.96,59.81,25.79,59.81,24.4z"/>
		<path d="M93.19,30.22l-0.4,6.5h0.4c0.55-2.49,1.47-4.38,2.76-5.65c1.28-1.28,2.95-1.92,5-1.92c1.21,0,2.26,0.19,3.13,0.58
			c0.87,0.39,1.58,0.9,2.12,1.55c0.54,0.65,0.92,1.39,1.16,2.24c0.24,0.84,0.36,1.72,0.36,2.61c0,0.74-0.11,1.47-0.33,2.2
			c-0.22,0.73-0.58,1.38-1.06,1.96c-0.49,0.58-1.12,1.05-1.89,1.41c-0.77,0.35-1.73,0.53-2.86,0.53c-1.58,0-2.82-0.4-3.73-1.21
			s-1.36-1.77-1.36-2.91c0-0.55,0.06-1.02,0.19-1.41c0.13-0.39,0.26-0.7,0.39-0.95s0.22-0.42,0.27-0.53
			c0.05-0.11-0.01-0.17-0.17-0.17c-0.33,0-0.69,0.38-1.08,1.14c-0.39,0.76-0.58,1.95-0.58,3.57v5.42c0,0.84,0.15,1.43,0.44,1.79
			c0.29,0.35,0.86,0.53,1.69,0.53h1.42v8.78H79.13v-8.78h1.4c0.65,0,1.14-0.21,1.48-0.63c0.34-0.42,0.51-0.92,0.51-1.5v-4.49
			c0-0.74-0.22-1.24-0.65-1.5c-0.43-0.26-0.93-0.39-1.48-0.39h-1.25v-8.78H93.19z"/>
		<path d="M122.56,44.72c0.06,2.35,0.51,3.97,1.34,4.86c0.83,0.89,2.01,1.34,3.56,1.34c0.52,0,1.03-0.07,1.53-0.22
			c0.5-0.15,0.96-0.39,1.38-0.73c0.43-0.34,0.79-0.79,1.1-1.35c0.31-0.56,0.51-1.27,0.6-2.12h8.61c-0.32,2.03-0.9,3.74-1.74,5.11
			c-0.84,1.37-1.93,2.48-3.25,3.32s-2.87,1.45-4.62,1.82c-1.76,0.37-3.72,0.56-5.88,0.56c-2.22,0-4.31-0.28-6.27-0.85
			c-1.96-0.57-3.67-1.43-5.15-2.59c-1.47-1.16-2.63-2.62-3.47-4.38c-0.84-1.76-1.25-3.85-1.25-6.28c0-2.32,0.39-4.35,1.18-6.1
			c0.79-1.75,1.9-3.21,3.32-4.39c1.43-1.17,3.11-2.06,5.06-2.66c1.95-0.6,4.09-0.9,6.42-0.9c2.87,0,5.34,0.38,7.4,1.14
			c2.07,0.76,3.75,1.81,5.06,3.17c1.31,1.36,2.27,2.99,2.89,4.9c0.61,1.91,0.91,4.03,0.87,6.36H122.56z M126.07,35.54
			c-1.1,0-1.92,0.39-2.45,1.17c-0.53,0.78-0.88,2.07-1.05,3.87h6.93c-0.09-1.55-0.43-2.77-0.99-3.68
			C127.93,35.99,127.12,35.54,126.07,35.54z"/>
		<path d="M143.26,56.28v-8.78c1.39,0,2.38-0.19,2.98-0.56c0.6-0.37,0.9-1.07,0.9-2.09V32.89c0-1.04-0.3-1.75-0.9-2.12
			c-0.6-0.37-1.59-0.56-2.98-0.56v-8.78H176v13.39h-8.28c0-0.98-0.05-1.76-0.14-2.35c-0.09-0.59-0.27-1.06-0.53-1.4
			c-0.26-0.34-0.61-0.57-1.04-0.69c-0.43-0.12-0.97-0.18-1.62-0.18h-3.29v6.84h7.55v4.16h-7.55v3.64c0,0.84,0.21,1.49,0.63,1.95
			c0.42,0.47,1.18,0.7,2.28,0.7h2.41v8.78H143.26z"/>
		<path d="M196.39,21.44v23.51c0,1.06,0.26,1.75,0.78,2.07c0.52,0.32,1.18,0.49,1.99,0.49h0.64v8.78h-19.92v-8.78h0.92
			c0.84,0,1.46-0.26,1.86-0.79c0.4-0.53,0.6-1.1,0.6-1.72V32.89c0-0.91-0.29-1.59-0.86-2.02c-0.58-0.43-1.24-0.65-2-0.65h-0.52
			v-8.78H196.39z"/>
		<path d="M222.79,58.22c-0.54,1.17-1.09,2.41-1.66,3.74c-0.57,1.32-1.31,2.55-2.24,3.68c-0.92,1.13-2.11,2.06-3.56,2.8
			c-1.45,0.74-3.34,1.11-5.68,1.11c-1.64,0-3.08-0.21-4.3-0.63c-1.23-0.42-2.25-0.98-3.05-1.69c-0.8-0.71-1.4-1.53-1.79-2.45
			c-0.39-0.92-0.58-1.86-0.58-2.83c0-1.91,0.59-3.41,1.76-4.51c1.17-1.1,2.64-1.64,4.39-1.64c1.02,0,1.88,0.15,2.58,0.45
			c0.69,0.3,1.26,0.69,1.7,1.16c0.44,0.47,0.75,0.99,0.92,1.56c0.17,0.57,0.26,1.1,0.26,1.61c0,1.14-0.28,2-0.84,2.6
			c-0.56,0.6-1.23,0.98-2.02,1.14c0.06,0.06,0.17,0.11,0.31,0.14c0.19,0.09,0.58,0.14,1.16,0.14c0.55,0,1.04-0.14,1.48-0.41
			c0.43-0.28,0.83-0.62,1.18-1.02c0.35-0.4,0.66-0.84,0.92-1.3c0.26-0.47,0.47-0.9,0.63-1.29l0.05-0.14l-10.08-19.42
			c-0.16-0.36-0.33-0.67-0.51-0.92c-0.18-0.25-0.4-0.46-0.66-0.63c-0.26-0.17-0.58-0.29-0.97-0.37c-0.39-0.08-0.87-0.12-1.45-0.12
			v-8.78h18.99v8.78c-0.99,0-1.64,0.15-1.95,0.44c-0.31,0.29-0.34,0.74-0.08,1.36l2.86,6.1l2.77-6.1c0.25-0.55,0.22-0.99-0.08-1.31
			c-0.31-0.32-0.96-0.49-1.95-0.49v-8.78h13.18v8.78c-1.17,0-1.98,0.16-2.45,0.49c-0.47,0.32-0.86,0.84-1.19,1.55L222.79,58.22z"/>
	</g>
	<g>
		<path d="M101.89,64.36h0.99v5.9h7.83v-5.9h0.99v12.97h-0.99v-6.16h-7.83v6.16h-0.99V64.36z"/>
		<path d="M114,72.21c0-3.69,2.47-5.32,5.02-5.32c2.53,0,5.04,1.63,5.04,5.32c0,3.73-2.49,5.36-5.02,5.36
			C116.47,77.57,114,75.93,114,72.21z M123.08,72.21c0-2.71-1.63-4.41-4.07-4.41c-2.46,0-4.05,1.68-4.05,4.41
			c0,2.76,1.59,4.44,4.07,4.44C121.47,76.65,123.08,74.95,123.08,72.21z"/>
		<path d="M126.09,73.1v-5.18h-1.56v-0.84h1.56v-1.94l0.99-0.21v2.15h3.33v0.84h-3.33v5.13c0,2.69,0.63,3.57,2.49,3.57
			c0.2,0,0.41-0.02,0.82-0.09l0.16,0.84c-0.38,0.07-0.79,0.09-1.04,0.09C127.08,77.46,126.09,76.28,126.09,73.1z"/>
		<path d="M131.18,72.21c0-3.15,2.06-5.32,5.05-5.32c3.1,0,5.05,2.15,4.87,5.39h-8.96c0.02,2.69,1.63,4.34,4.19,4.34
			c1.77,0,2.92-0.7,3.66-1.99l0.9,0.29c-0.9,1.68-2.37,2.62-4.55,2.62C133.23,77.53,131.18,75.41,131.18,72.21z M140.14,71.4
			c-0.11-2.2-1.59-3.62-3.91-3.62c-2.2,0-3.76,1.4-4.03,3.62H140.14z"/>
		<path d="M143.24,63.75h0.99v13.58h-0.99V63.75z"/>
	</g>
	<path class="st0" d="M123.28,15.92"/>
</g>
</svg>
